<svg xmlns="http://www.w3.org/2000/svg" xmlns:xlink="http://www.w3.org/1999/xlink" width="200" zoomAndPan="magnify" viewBox="0 0 150 37.5" height="50" preserveAspectRatio="xMidYMid meet" version="1.2"><defs><clipPath id="4de50c7967"><path d="M 23.851562 13.765625 L 44.574219 13.765625 L 44.574219 35.972656 L 23.851562 35.972656 Z M 23.851562 13.765625 "/></clipPath><clipPath id="bbd3234ec3"><path d="M 13.429688 3.699219 L 34.152344 3.699219 L 34.152344 32.566406 L 13.429688 32.566406 Z M 13.429688 3.699219 "/></clipPath></defs><g id="1e4c4543b6"><g clip-rule="nonzero" clip-path="url(#4de50c7967)"><path style=" stroke:none;fill-rule:evenodd;fill:#edfaf0;fill-opacity:1;" d="M 44.570312 13.765625 L 40.523438 17.667969 C 38.820312 16.328125 36.941406 15.597656 34.015625 15.597656 C 28.679688 15.597656 24.777344 19.691406 24.777344 24.691406 L 24.777344 24.738281 C 24.777344 27.445312 25.777344 29.785156 27.53125 31.417969 L 23.851562 35.613281 C 31.628906 28.101562 37.480469 21.933594 44.570312 13.765625 Z M 28.824219 24.640625 C 28.824219 21.640625 31.066406 19.15625 33.871094 19.15625 C 35.550781 19.15625 36.648438 19.59375 37.746094 20.375 C 34.871094 23.152344 32.726562 25.445312 30.09375 28.441406 C 29.289062 27.46875 28.824219 26.175781 28.824219 24.6875 Z M 28.824219 24.640625 "/></g><path style=" stroke:none;fill-rule:evenodd;fill:#edfaf0;fill-opacity:1;" d="M 34.042969 26.710938 L 37.820312 26.710938 L 37.820312 29.222656 C 36.820312 29.929688 35.578125 30.292969 34.164062 30.292969 C 33.113281 30.292969 32.164062 30.023438 31.359375 29.539062 L 28.703125 32.316406 C 30.164062 33.269531 31.992188 33.804688 34.042969 33.804688 C 37.257812 33.804688 39.746094 32.5625 41.546875 31.023438 L 41.546875 23.371094 L 37.210938 23.371094 Z M 34.042969 26.710938 "/><g clip-rule="nonzero" clip-path="url(#bbd3234ec3)"><path style=" stroke:none;fill-rule:nonzero;fill:#edfaf0;fill-opacity:1;" d="M 34.136719 11.917969 C 34.148438 16.472656 30.445312 20.179688 25.894531 20.179688 L 21.40625 20.179688 C 19.460938 20.179688 17.882812 21.757812 17.882812 23.707031 L 17.882812 28.242188 L 13.59375 32.53125 L 13.59375 24.816406 C 13.59375 19.886719 17.589844 15.890625 22.515625 15.890625 L 25.898438 15.890625 C 28.070312 15.890625 29.839844 14.128906 29.847656 11.957031 C 29.855469 9.773438 28.054688 7.988281 25.871094 7.988281 L 17.722656 7.988281 L 13.433594 3.699219 L 25.859375 3.699219 C 30.40625 3.699219 34.125 7.371094 34.136719 11.917969 Z M 34.136719 11.917969 "/></g><g style="fill:#edfaf0;fill-opacity:1;"><g transform="translate(42.017499, 31.230428)"><path style="stroke:none" d="M 0.90625 -7.5625 L 4 -7.5625 C 4.445312 -7.5625 4.847656 -7.5 5.203125 -7.375 C 5.566406 -7.25 5.867188 -7.066406 6.109375 -6.828125 C 6.359375 -6.597656 6.550781 -6.320312 6.6875 -6 C 6.820312 -5.6875 6.890625 -5.332031 6.890625 -4.9375 L 6.890625 -4.921875 C 6.890625 -4.484375 6.804688 -4.097656 6.640625 -3.765625 C 6.484375 -3.429688 6.265625 -3.15625 5.984375 -2.9375 C 5.710938 -2.71875 5.390625 -2.550781 5.015625 -2.4375 C 4.648438 -2.320312 4.253906 -2.265625 3.828125 -2.265625 L 2.5625 -2.265625 L 2.5625 0 L 0.90625 0 Z M 3.890625 -3.75 C 4.304688 -3.75 4.628906 -3.859375 4.859375 -4.078125 C 5.085938 -4.296875 5.203125 -4.566406 5.203125 -4.890625 L 5.203125 -4.90625 C 5.203125 -5.28125 5.082031 -5.566406 4.84375 -5.765625 C 4.601562 -5.960938 4.273438 -6.0625 3.859375 -6.0625 L 2.5625 -6.0625 L 2.5625 -3.75 Z M 3.890625 -3.75 "/></g></g><g style="fill:#edfaf0;fill-opacity:1;"><g transform="translate(49.225029, 31.230428)"><path style="stroke:none" d="M 0.90625 -7.5625 L 4.359375 -7.5625 C 5.316406 -7.5625 6.050781 -7.304688 6.5625 -6.796875 C 7 -6.359375 7.21875 -5.78125 7.21875 -5.0625 L 7.21875 -5.046875 C 7.21875 -4.429688 7.066406 -3.929688 6.765625 -3.546875 C 6.460938 -3.160156 6.070312 -2.878906 5.59375 -2.703125 L 7.4375 0 L 5.5 0 L 3.875 -2.421875 L 2.5625 -2.421875 L 2.5625 0 L 0.90625 0 Z M 4.25 -3.890625 C 4.664062 -3.890625 4.984375 -3.984375 5.203125 -4.171875 C 5.421875 -4.367188 5.53125 -4.628906 5.53125 -4.953125 L 5.53125 -4.984375 C 5.53125 -5.335938 5.414062 -5.601562 5.1875 -5.78125 C 4.957031 -5.96875 4.632812 -6.0625 4.21875 -6.0625 L 2.5625 -6.0625 L 2.5625 -3.890625 Z M 4.25 -3.890625 "/></g></g><g style="fill:#edfaf0;fill-opacity:1;"><g transform="translate(57.025988, 31.230428)"><path style="stroke:none" d="M 4.578125 0.125 C 3.992188 0.125 3.457031 0.0234375 2.96875 -0.171875 C 2.476562 -0.378906 2.054688 -0.65625 1.703125 -1 C 1.347656 -1.351562 1.070312 -1.765625 0.875 -2.234375 C 0.675781 -2.710938 0.578125 -3.21875 0.578125 -3.75 L 0.578125 -3.78125 C 0.578125 -4.320312 0.675781 -4.828125 0.875 -5.296875 C 1.070312 -5.765625 1.347656 -6.175781 1.703125 -6.53125 C 2.066406 -6.894531 2.492188 -7.175781 2.984375 -7.375 C 3.472656 -7.582031 4.007812 -7.6875 4.59375 -7.6875 C 5.175781 -7.6875 5.710938 -7.582031 6.203125 -7.375 C 6.691406 -7.175781 7.113281 -6.898438 7.46875 -6.546875 C 7.832031 -6.203125 8.113281 -5.789062 8.3125 -5.3125 C 8.507812 -4.84375 8.609375 -4.335938 8.609375 -3.796875 L 8.609375 -3.78125 C 8.609375 -3.238281 8.503906 -2.734375 8.296875 -2.265625 C 8.097656 -1.796875 7.820312 -1.378906 7.46875 -1.015625 C 7.113281 -0.660156 6.6875 -0.378906 6.1875 -0.171875 C 5.695312 0.0234375 5.160156 0.125 4.578125 0.125 Z M 4.59375 -1.40625 C 4.925781 -1.40625 5.234375 -1.460938 5.515625 -1.578125 C 5.796875 -1.703125 6.035156 -1.875 6.234375 -2.09375 C 6.429688 -2.3125 6.582031 -2.5625 6.6875 -2.84375 C 6.800781 -3.125 6.859375 -3.425781 6.859375 -3.75 L 6.859375 -3.78125 C 6.859375 -4.101562 6.800781 -4.40625 6.6875 -4.6875 C 6.582031 -4.976562 6.425781 -5.234375 6.21875 -5.453125 C 6.019531 -5.671875 5.78125 -5.84375 5.5 -5.96875 C 5.21875 -6.09375 4.910156 -6.15625 4.578125 -6.15625 C 4.242188 -6.15625 3.9375 -6.09375 3.65625 -5.96875 C 3.375 -5.84375 3.132812 -5.671875 2.9375 -5.453125 C 2.738281 -5.242188 2.582031 -4.992188 2.46875 -4.703125 C 2.363281 -4.421875 2.3125 -4.117188 2.3125 -3.796875 L 2.3125 -3.78125 C 2.3125 -3.457031 2.363281 -3.148438 2.46875 -2.859375 C 2.582031 -2.566406 2.742188 -2.3125 2.953125 -2.09375 C 3.160156 -1.882812 3.398438 -1.71875 3.671875 -1.59375 C 3.953125 -1.46875 4.257812 -1.40625 4.59375 -1.40625 Z M 4.59375 -1.40625 "/></g></g><g style="fill:#edfaf0;fill-opacity:1;"><g transform="translate(66.197245, 31.230428)"><path style="stroke:none" d="M 0.90625 -7.5625 L 4 -7.5625 C 4.445312 -7.5625 4.847656 -7.5 5.203125 -7.375 C 5.566406 -7.25 5.867188 -7.066406 6.109375 -6.828125 C 6.359375 -6.597656 6.550781 -6.320312 6.6875 -6 C 6.820312 -5.6875 6.890625 -5.332031 6.890625 -4.9375 L 6.890625 -4.921875 C 6.890625 -4.484375 6.804688 -4.097656 6.640625 -3.765625 C 6.484375 -3.429688 6.265625 -3.15625 5.984375 -2.9375 C 5.710938 -2.71875 5.390625 -2.550781 5.015625 -2.4375 C 4.648438 -2.320312 4.253906 -2.265625 3.828125 -2.265625 L 2.5625 -2.265625 L 2.5625 0 L 0.90625 0 Z M 3.890625 -3.75 C 4.304688 -3.75 4.628906 -3.859375 4.859375 -4.078125 C 5.085938 -4.296875 5.203125 -4.566406 5.203125 -4.890625 L 5.203125 -4.90625 C 5.203125 -5.28125 5.082031 -5.566406 4.84375 -5.765625 C 4.601562 -5.960938 4.273438 -6.0625 3.859375 -6.0625 L 2.5625 -6.0625 L 2.5625 -3.75 Z M 3.890625 -3.75 "/></g></g><g style="fill:#edfaf0;fill-opacity:1;"><g transform="translate(73.404775, 31.230428)"><path style="stroke:none" d="M 0.90625 -7.5625 L 6.609375 -7.5625 L 6.609375 -6.078125 L 2.5625 -6.078125 L 2.5625 -4.546875 L 6.125 -4.546875 L 6.125 -3.0625 L 2.5625 -3.0625 L 2.5625 -1.484375 L 6.65625 -1.484375 L 6.65625 0 L 0.90625 0 Z M 0.90625 -7.5625 "/></g></g><g style="fill:#edfaf0;fill-opacity:1;"><g transform="translate(80.633887, 31.230428)"><path style="stroke:none" d="M 0.90625 -7.5625 L 4.359375 -7.5625 C 5.316406 -7.5625 6.050781 -7.304688 6.5625 -6.796875 C 7 -6.359375 7.21875 -5.78125 7.21875 -5.0625 L 7.21875 -5.046875 C 7.21875 -4.429688 7.066406 -3.929688 6.765625 -3.546875 C 6.460938 -3.160156 6.070312 -2.878906 5.59375 -2.703125 L 7.4375 0 L 5.5 0 L 3.875 -2.421875 L 2.5625 -2.421875 L 2.5625 0 L 0.90625 0 Z M 4.25 -3.890625 C 4.664062 -3.890625 4.984375 -3.984375 5.203125 -4.171875 C 5.421875 -4.367188 5.53125 -4.628906 5.53125 -4.953125 L 5.53125 -4.984375 C 5.53125 -5.335938 5.414062 -5.601562 5.1875 -5.78125 C 4.957031 -5.96875 4.632812 -6.0625 4.21875 -6.0625 L 2.5625 -6.0625 L 2.5625 -3.890625 Z M 4.25 -3.890625 "/></g></g><g style="fill:#edfaf0;fill-opacity:1;"><g transform="translate(88.434846, 31.230428)"><path style="stroke:none" d="M 2.671875 -6.03125 L 0.359375 -6.03125 L 0.359375 -7.5625 L 6.625 -7.5625 L 6.625 -6.03125 L 4.328125 -6.03125 L 4.328125 0 L 2.671875 0 Z M 2.671875 -6.03125 "/></g></g><g style="fill:#edfaf0;fill-opacity:1;"><g transform="translate(95.42658, 31.230428)"><path style="stroke:none" d="M 3.03125 -2.984375 L 0.125 -7.5625 L 2.078125 -7.5625 L 3.875 -4.53125 L 5.71875 -7.5625 L 7.59375 -7.5625 L 4.703125 -3.015625 L 4.703125 0 L 3.03125 0 Z M 3.03125 -2.984375 "/></g></g><g style="fill:#edfaf0;fill-opacity:1;"><g transform="translate(103.152019, 31.230428)"><path style="stroke:none" d=""/></g></g><g style="fill:#edfaf0;fill-opacity:1;"><g transform="translate(106.388931, 31.230428)"><path style="stroke:none" d="M 4.546875 0.125 C 3.953125 0.125 3.410156 0.03125 2.921875 -0.15625 C 2.441406 -0.351562 2.023438 -0.625 1.671875 -0.96875 C 1.328125 -1.3125 1.054688 -1.722656 0.859375 -2.203125 C 0.671875 -2.679688 0.578125 -3.195312 0.578125 -3.75 L 0.578125 -3.78125 C 0.578125 -4.320312 0.675781 -4.828125 0.875 -5.296875 C 1.070312 -5.765625 1.34375 -6.175781 1.6875 -6.53125 C 2.039062 -6.894531 2.457031 -7.175781 2.9375 -7.375 C 3.425781 -7.582031 3.957031 -7.6875 4.53125 -7.6875 C 4.875 -7.6875 5.179688 -7.660156 5.453125 -7.609375 C 5.734375 -7.566406 5.992188 -7.5 6.234375 -7.40625 C 6.472656 -7.320312 6.695312 -7.21875 6.90625 -7.09375 C 7.113281 -6.96875 7.3125 -6.820312 7.5 -6.65625 L 6.453125 -5.390625 C 6.304688 -5.515625 6.160156 -5.625 6.015625 -5.71875 C 5.878906 -5.8125 5.734375 -5.890625 5.578125 -5.953125 C 5.421875 -6.015625 5.25 -6.0625 5.0625 -6.09375 C 4.882812 -6.132812 4.691406 -6.15625 4.484375 -6.15625 C 4.179688 -6.15625 3.894531 -6.09375 3.625 -5.96875 C 3.363281 -5.84375 3.132812 -5.671875 2.9375 -5.453125 C 2.738281 -5.242188 2.582031 -4.992188 2.46875 -4.703125 C 2.363281 -4.421875 2.3125 -4.117188 2.3125 -3.796875 L 2.3125 -3.78125 C 2.3125 -3.4375 2.363281 -3.117188 2.46875 -2.828125 C 2.582031 -2.535156 2.742188 -2.28125 2.953125 -2.0625 C 3.160156 -1.84375 3.398438 -1.671875 3.671875 -1.546875 C 3.953125 -1.429688 4.257812 -1.375 4.59375 -1.375 C 5.21875 -1.375 5.742188 -1.523438 6.171875 -1.828125 L 6.171875 -2.921875 L 4.484375 -2.921875 L 4.484375 -4.34375 L 7.78125 -4.34375 L 7.78125 -1.0625 C 7.382812 -0.738281 6.914062 -0.457031 6.375 -0.21875 C 5.84375 0.0078125 5.234375 0.125 4.546875 0.125 Z M 4.546875 0.125 "/></g></g><g style="fill:#edfaf0;fill-opacity:1;"><g transform="translate(114.848065, 31.230428)"><path style="stroke:none" d="M 3.5 -7.609375 L 5.03125 -7.609375 L 8.265625 0 L 6.53125 0 L 5.84375 -1.6875 L 2.640625 -1.6875 L 1.953125 0 L 0.265625 0 Z M 5.25 -3.15625 L 4.25 -5.609375 L 3.234375 -3.15625 Z M 5.25 -3.15625 "/></g></g><g style="fill:#edfaf0;fill-opacity:1;"><g transform="translate(122.400747, 31.230428)"><path style="stroke:none" d="M 2.671875 -6.03125 L 0.359375 -6.03125 L 0.359375 -7.5625 L 6.625 -7.5625 L 6.625 -6.03125 L 4.328125 -6.03125 L 4.328125 0 L 2.671875 0 Z M 2.671875 -6.03125 "/></g></g><g style="fill:#edfaf0;fill-opacity:1;"><g transform="translate(129.392481, 31.230428)"><path style="stroke:none" d="M 0.90625 -7.5625 L 6.609375 -7.5625 L 6.609375 -6.078125 L 2.5625 -6.078125 L 2.5625 -4.546875 L 6.125 -4.546875 L 6.125 -3.0625 L 2.5625 -3.0625 L 2.5625 -1.484375 L 6.65625 -1.484375 L 6.65625 0 L 0.90625 0 Z M 0.90625 -7.5625 "/></g></g></g></svg>